solid OpenSCAD_Model
  facet normal 0.992115 0.125333 0
    outer loop
      vertex 3.05104 0.783373 150
      vertex 3.06589 0.665812 62.1283
      vertex 3.05104 0.783373 61.7851
    endloop
  endfacet
  facet normal 0.992115 0.125333 3.46542e-10
    outer loop
      vertex 3.05104 0.783373 150
      vertex 3.10101 0.387829 62.4861
      vertex 3.06589 0.665812 62.1283
    endloop
  endfacet
  facet normal 0.992115 0.125333 -2.52505e-09
    outer loop
      vertex 3.05104 0.783373 150
      vertex 3.13905 0.0866989 62.4861
      vertex 3.10101 0.387829 62.4861
    endloop
  endfacet
  facet normal 0.992115 0.125333 1.29859e-09
    outer loop
      vertex 3.15 0 150
      vertex 3.13905 0.0866989 62.4861
      vertex 3.05104 0.783373 150
    endloop
  endfacet
  facet normal 0.992115 0.125332 0
    outer loop
      vertex 3.13905 0.0866989 62.4861
      vertex 3.15 0 150
      vertex 3.15 0 62.4335
    endloop
  endfacet
  facet normal 0.992115 0.125333 0
    outer loop
      vertex 3.06589 0.665812 7.62389
      vertex 3.05104 0.783373 0
      vertex 3.05104 0.783373 7.73831
    endloop
  endfacet
  facet normal 0.992115 0.125333 -3.97477e-09
    outer loop
      vertex 3.10101 0.387829 7.50463
      vertex 3.05104 0.783373 0
      vertex 3.06589 0.665812 7.62389
    endloop
  endfacet
  facet normal 0.992115 0.125333 -2.06922e-08
    outer loop
      vertex 3.15 0 0
      vertex 3.10101 0.387829 7.50463
      vertex 3.13905 0.0866989 7.50463
    endloop
  endfacet
  facet normal 0.992115 0.125332 -0
    outer loop
      vertex 3.15 0 0
      vertex 3.13905 0.0866989 7.50463
      vertex 3.15 0 7.52217
    endloop
  endfacet
  facet normal 0.992115 0.125333 4.12973e-09
    outer loop
      vertex 3.10101 0.387829 7.50463
      vertex 3.15 0 0
      vertex 3.05104 0.783373 0
    endloop
  endfacet
  facet normal -1 0 0
    outer loop
      vertex -3.12516 0.238346 62.5069
      vertex -3.12516 0.394799 150
      vertex -3.12516 0.394799 62.3156
    endloop
  endfacet
  facet normal -1 0 0
    outer loop
      vertex -3.12516 -0.238346 62.5069
      vertex -3.12516 0.394799 150
      vertex -3.12516 0.238346 62.5069
    endloop
  endfacet
  facet normal -1 0 0
    outer loop
      vertex -3.12516 -0.394799 150
      vertex -3.12516 -0.238346 62.5069
      vertex -3.12516 -0.394799 62.3156
    endloop
  endfacet
  facet normal -1 0 0
    outer loop
      vertex -3.12516 -0.238346 62.5069
      vertex -3.12516 -0.394799 150
      vertex -3.12516 0.394799 150
    endloop
  endfacet
  facet normal -1 0 0
    outer loop
      vertex -3.12516 0.394799 0
      vertex -3.12516 0.238346 7.4977
      vertex -3.12516 0.394799 7.56148
    endloop
  endfacet
  facet normal -1 0 0
    outer loop
      vertex -3.12516 0.394799 0
      vertex -3.12516 -0.238346 7.4977
      vertex -3.12516 0.238346 7.4977
    endloop
  endfacet
  facet normal -1 0 0
    outer loop
      vertex -3.12516 -0.394799 0
      vertex -3.12516 -0.238346 7.4977
      vertex -3.12516 0.394799 0
    endloop
  endfacet
  facet normal -1 -0 0
    outer loop
      vertex -3.12516 -0.238346 7.4977
      vertex -3.12516 -0.394799 0
      vertex -3.12516 -0.394799 7.56148
    endloop
  endfacet
  facet normal -0.0627909 0.998027 0
    outer loop
      vertex 0.197789 3.14378 0
      vertex -0.590251 3.0942 150
      vertex 0.197789 3.14378 150
    endloop
  endfacet
  facet normal -0.0627909 0.998027 0
    outer loop
      vertex -0.590251 3.0942 150
      vertex 0.197789 3.14378 0
      vertex -0.590251 3.0942 0
    endloop
  endfacet
  facet normal 0.187381 -0.982287 0
    outer loop
      vertex 0.197789 -3.14378 0
      vertex 0.973403 -2.99583 150
      vertex 0.197789 -3.14378 150
    endloop
  endfacet
  facet normal 0.187381 -0.982287 0
    outer loop
      vertex 0.973403 -2.99583 150
      vertex 0.197789 -3.14378 0
      vertex 0.973403 -2.99583 0
    endloop
  endfacet
  facet normal 0.425779 -0.904827 0
    outer loop
      vertex 0.973403 -2.99583 0
      vertex 1.68785 -2.65963 150
      vertex 0.973403 -2.99583 150
    endloop
  endfacet
  facet normal 0.425779 -0.904827 0
    outer loop
      vertex 1.68785 -2.65963 150
      vertex 0.973403 -2.99583 0
      vertex 1.68785 -2.65963 0
    endloop
  endfacet
  facet normal 0.637425 0.770513 -0
    outer loop
      vertex 2.29625 2.15632 0
      vertex 1.68785 2.65963 150
      vertex 2.29625 2.15632 150
    endloop
  endfacet
  facet normal 0.637425 0.770513 0
    outer loop
      vertex 1.68785 2.65963 150
      vertex 2.29625 2.15632 0
      vertex 1.68785 2.65963 0
    endloop
  endfacet
  facet normal 0.929776 0.368125 0
    outer loop
      vertex 2.76037 1.51752 150
      vertex 2.8999 1.16509 58.9538
      vertex 2.76037 1.51752 0
    endloop
  endfacet
  facet normal 0.929775 0.368127 -1.00187e-08
    outer loop
      vertex 2.76037 1.51752 150
      vertex 2.90504 1.15212 59.992
      vertex 2.8999 1.16509 58.9538
    endloop
  endfacet
  facet normal 0.929776 0.368126 -6.2557e-09
    outer loop
      vertex 2.76037 1.51752 150
      vertex 2.94041 1.06277 60.9105
      vertex 2.90504 1.15212 59.992
    endloop
  endfacet
  facet normal 0.929776 0.368125 2.94374e-09
    outer loop
      vertex 2.76037 1.51752 150
      vertex 3.00625 0.896489 61.6031
      vertex 2.94041 1.06277 60.9105
    endloop
  endfacet
  facet normal 0.929776 0.368125 -0
    outer loop
      vertex 3.05104 0.783373 61.7851
      vertex 2.76037 1.51752 150
      vertex 3.05104 0.783373 150
    endloop
  endfacet
  facet normal 0.929776 0.368125 9.32499e-10
    outer loop
      vertex 2.76037 1.51752 150
      vertex 3.05104 0.783373 61.7851
      vertex 3.00625 0.896489 61.6031
    endloop
  endfacet
  facet normal 0.929776 0.368125 -0
    outer loop
      vertex 2.8999 1.16509 8.68206
      vertex 2.76037 1.51752 0
      vertex 2.8999 1.16509 58.9538
    endloop
  endfacet
  facet normal 0.929776 0.368126 6.6055e-08
    outer loop
      vertex 2.90504 1.15212 8.33601
      vertex 2.76037 1.51752 0
      vertex 2.8999 1.16509 8.68206
    endloop
  endfacet
  facet normal 0.929776 0.368126 6.11761e-08
    outer loop
      vertex 2.94041 1.06277 8.02985
      vertex 2.76037 1.51752 0
      vertex 2.90504 1.15212 8.33601
    endloop
  endfacet
  facet normal 0.929776 0.368125 -3.09229e-08
    outer loop
      vertex 3.00625 0.896489 7.79895
      vertex 2.76037 1.51752 0
      vertex 2.94041 1.06277 8.02985
    endloop
  endfacet
  facet normal 0.929776 0.368125 -1.02512e-08
    outer loop
      vertex 3.05104 0.783373 7.73831
      vertex 2.76037 1.51752 0
      vertex 3.00625 0.896489 7.79895
    endloop
  endfacet
  facet normal 0.929776 0.368125 0
    outer loop
      vertex 2.76037 1.51752 0
      vertex 3.05104 0.783373 7.73831
      vertex 3.05104 0.783373 0
    endloop
  endfacet
  facet normal 0.425779 0.904827 -0
    outer loop
      vertex 1.68785 2.65963 0
      vertex 0.973403 2.99583 150
      vertex 1.68785 2.65963 150
    endloop
  endfacet
  facet normal 0.425779 0.904827 0
    outer loop
      vertex 0.973403 2.99583 150
      vertex 1.68785 2.65963 0
      vertex 0.973403 2.99583 0
    endloop
  endfacet
  facet normal -0.728969 0.684547 0
    outer loop
      vertex -2.5484 1.85152 0
      vertex -2.00788 2.42712 150
      vertex -2.00788 2.42712 0
    endloop
  endfacet
  facet normal -0.728969 0.684547 0
    outer loop
      vertex -2.00788 2.42712 150
      vertex -2.5484 1.85152 0
      vertex -2.5484 1.85152 150
    endloop
  endfacet
  facet normal -0.876306 0.481754 0
    outer loop
      vertex -2.92653 1.16372 59.3696
      vertex -2.5484 1.85152 0
      vertex -2.92653 1.16372 8.54348
    endloop
  endfacet
  facet normal -0.876306 0.481754 0
    outer loop
      vertex -2.9288 1.15959 8.51801
      vertex -2.5484 1.85152 0
      vertex -2.9288 1.15959 0
    endloop
  endfacet
  facet normal -0.876306 0.481754 3.62947e-08
    outer loop
      vertex -2.5484 1.85152 0
      vertex -2.9288 1.15959 8.51801
      vertex -2.92653 1.16372 8.54348
    endloop
  endfacet
  facet normal -0.876306 0.481754 0
    outer loop
      vertex -2.5484 1.85152 0
      vertex -2.92653 1.16372 59.3696
      vertex -2.5484 1.85152 150
    endloop
  endfacet
  facet normal -0.876306 0.481754 -4.49035e-09
    outer loop
      vertex -2.9288 1.15959 59.446
      vertex -2.5484 1.85152 150
      vertex -2.92653 1.16372 59.3696
    endloop
  endfacet
  facet normal -0.876306 0.481754 0
    outer loop
      vertex -2.5484 1.85152 150
      vertex -2.9288 1.15959 59.446
      vertex -2.9288 1.15959 150
    endloop
  endfacet
  facet normal -0.535827 0.844328 0
    outer loop
      vertex -1.3412 2.8502 0
      vertex -2.00788 2.42712 150
      vertex -1.3412 2.8502 150
    endloop
  endfacet
  facet normal -0.535827 0.844328 0
    outer loop
      vertex -2.00788 2.42712 150
      vertex -1.3412 2.8502 0
      vertex -2.00788 2.42712 0
    endloop
  endfacet
  facet normal 0 0 -1
    outer loop
      vertex 3.05104 -0.783373 0
      vertex 3.05104 0.783373 0
      vertex 3.15 0 0
    endloop
  endfacet
  facet normal 0 0 -1
    outer loop
      vertex 2.76037 -1.51752 0
      vertex 3.05104 0.783373 0
      vertex 3.05104 -0.783373 0
    endloop
  endfacet
  facet normal 0 0 -1
    outer loop
      vertex 2.76037 -1.51752 0
      vertex 2.76037 1.51752 0
      vertex 3.05104 0.783373 0
    endloop
  endfacet
  facet normal 0 0 -1
    outer loop
      vertex 2.29625 -2.15632 0
      vertex 2.76037 1.51752 0
      vertex 2.76037 -1.51752 0
    endloop
  endfacet
  facet normal 0 0 -1
    outer loop
      vertex 2.29625 -2.15632 0
      vertex 2.29625 2.15632 0
      vertex 2.76037 1.51752 0
    endloop
  endfacet
  facet normal 0 0 -1
    outer loop
      vertex 1.68785 -2.65963 0
      vertex 2.29625 2.15632 0
      vertex 2.29625 -2.15632 0
    endloop
  endfacet
  facet normal 0 0 -1
    outer loop
      vertex 1.68785 -2.65963 0
      vertex 1.68785 2.65963 0
      vertex 2.29625 2.15632 0
    endloop
  endfacet
  facet normal 0 0 -1
    outer loop
      vertex 0.973403 -2.99583 0
      vertex 1.68785 2.65963 0
      vertex 1.68785 -2.65963 0
    endloop
  endfacet
  facet normal 0 0 -1
    outer loop
      vertex 0.973403 -2.99583 0
      vertex 0.973403 2.99583 0
      vertex 1.68785 2.65963 0
    endloop
  endfacet
  facet normal 0 0 -1
    outer loop
      vertex 0.197789 -3.14378 0
      vertex 0.973403 2.99583 0
      vertex 0.973403 -2.99583 0
    endloop
  endfacet
  facet normal 0 0 -1
    outer loop
      vertex 0.197789 -3.14378 0
      vertex 0.197789 3.14378 0
      vertex 0.973403 2.99583 0
    endloop
  endfacet
  facet normal 0 0 -1
    outer loop
      vertex -0.590251 -3.0942 0
      vertex 0.197789 3.14378 0
      vertex 0.197789 -3.14378 0
    endloop
  endfacet
  facet normal 0 0 -1
    outer loop
      vertex -0.590251 -3.0942 0
      vertex -0.590251 3.0942 0
      vertex 0.197789 3.14378 0
    endloop
  endfacet
  facet normal 0 0 -1
    outer loop
      vertex -1.3412 -2.8502 0
      vertex -0.590251 3.0942 0
      vertex -0.590251 -3.0942 0
    endloop
  endfacet
  facet normal 0 0 -1
    outer loop
      vertex -1.3412 -2.8502 0
      vertex -1.3412 2.8502 0
      vertex -0.590251 3.0942 0
    endloop
  endfacet
  facet normal 0 0 -1
    outer loop
      vertex -2.00788 -2.42712 0
      vertex -1.3412 2.8502 0
      vertex -1.3412 -2.8502 0
    endloop
  endfacet
  facet normal 0 0 -1
    outer loop
      vertex -2.00788 -2.42712 0
      vertex -2.00788 2.42712 0
      vertex -1.3412 2.8502 0
    endloop
  endfacet
  facet normal 0 0 -1
    outer loop
      vertex -2.5484 -1.85152 0
      vertex -2.00788 2.42712 0
      vertex -2.00788 -2.42712 0
    endloop
  endfacet
  facet normal 0 0 -1
    outer loop
      vertex -2.5484 -1.85152 0
      vertex -2.5484 1.85152 0
      vertex -2.00788 2.42712 0
    endloop
  endfacet
  facet normal 0 0 -1
    outer loop
      vertex -2.9288 -1.15959 0
      vertex -2.5484 1.85152 0
      vertex -2.5484 -1.85152 0
    endloop
  endfacet
  facet normal 0 0 -1
    outer loop
      vertex -2.9288 -1.15959 0
      vertex -2.9288 1.15959 0
      vertex -2.5484 1.85152 0
    endloop
  endfacet
  facet normal 0 0 -1
    outer loop
      vertex -3.12516 -0.394799 0
      vertex -2.9288 1.15959 0
      vertex -2.9288 -1.15959 0
    endloop
  endfacet
  facet normal 0 0 -1
    outer loop
      vertex -2.9288 1.15959 0
      vertex -3.12516 -0.394799 0
      vertex -3.12516 0.394799 0
    endloop
  endfacet
  facet normal 0.929776 -0.368125 0
    outer loop
      vertex 2.76037 -1.51752 150
      vertex 3.05104 -0.783373 61.7851
      vertex 3.05104 -0.783373 150
    endloop
  endfacet
  facet normal 0.929776 -0.368125 9.32499e-10
    outer loop
      vertex 3.05104 -0.783373 61.7851
      vertex 2.76037 -1.51752 150
      vertex 3.00625 -0.896489 61.6031
    endloop
  endfacet
  facet normal 0.929776 -0.368125 2.94374e-09
    outer loop
      vertex 3.00625 -0.896489 61.6031
      vertex 2.76037 -1.51752 150
      vertex 2.94041 -1.06277 60.9105
    endloop
  endfacet
  facet normal 0.929776 -0.368126 -6.2557e-09
    outer loop
      vertex 2.94041 -1.06277 60.9105
      vertex 2.76037 -1.51752 150
      vertex 2.90504 -1.15212 59.992
    endloop
  endfacet
  facet normal 0.929776 -0.368125 0
    outer loop
      vertex 2.76037 -1.51752 0
      vertex 2.8999 -1.16509 58.9538
      vertex 2.76037 -1.51752 150
    endloop
  endfacet
  facet normal 0.929775 -0.368127 -1.00187e-08
    outer loop
      vertex 2.90504 -1.15212 59.992
      vertex 2.76037 -1.51752 150
      vertex 2.8999 -1.16509 58.9538
    endloop
  endfacet
  facet normal 0.929776 -0.368125 -1.02512e-08
    outer loop
      vertex 2.76037 -1.51752 0
      vertex 3.05104 -0.783373 7.73831
      vertex 3.00625 -0.896489 7.79895
    endloop
  endfacet
  facet normal 0.929776 -0.368125 -3.09229e-08
    outer loop
      vertex 2.76037 -1.51752 0
      vertex 3.00625 -0.896489 7.79895
      vertex 2.94041 -1.06277 8.02985
    endloop
  endfacet
  facet normal 0.929776 -0.368126 6.11761e-08
    outer loop
      vertex 2.76037 -1.51752 0
      vertex 2.94041 -1.06277 8.02985
      vertex 2.90504 -1.15212 8.33601
    endloop
  endfacet
  facet normal 0.929776 -0.368125 0
    outer loop
      vertex 3.05104 -0.783373 7.73831
      vertex 2.76037 -1.51752 0
      vertex 3.05104 -0.783373 0
    endloop
  endfacet
  facet normal 0.929776 -0.368126 6.6055e-08
    outer loop
      vertex 2.8999 -1.16509 8.68206
      vertex 2.76037 -1.51752 0
      vertex 2.90504 -1.15212 8.33601
    endloop
  endfacet
  facet normal 0.929776 -0.368125 0
    outer loop
      vertex 2.8999 -1.16509 58.9538
      vertex 2.76037 -1.51752 0
      vertex 2.8999 -1.16509 8.68206
    endloop
  endfacet
  facet normal 0.809017 0.587786 0
    outer loop
      vertex 2.76037 1.51752 150
      vertex 2.29625 2.15632 0
      vertex 2.29625 2.15632 150
    endloop
  endfacet
  facet normal 0.809017 0.587786 0
    outer loop
      vertex 2.29625 2.15632 0
      vertex 2.76037 1.51752 150
      vertex 2.76037 1.51752 0
    endloop
  endfacet
  facet normal 0.187381 0.982287 -0
    outer loop
      vertex 0.973403 2.99583 0
      vertex 0.197789 3.14378 150
      vertex 0.973403 2.99583 150
    endloop
  endfacet
  facet normal 0.187381 0.982287 0
    outer loop
      vertex 0.197789 3.14378 150
      vertex 0.973403 2.99583 0
      vertex 0.197789 3.14378 0
    endloop
  endfacet
  facet normal -0.968583 0.248691 0
    outer loop
      vertex -2.94042 1.11432 60.3814
      vertex -2.9288 1.15959 150
      vertex -2.9288 1.15959 59.446
    endloop
  endfacet
  facet normal -0.968583 0.24869 5.22142e-10
    outer loop
      vertex -2.97272 0.988514 61.278
      vertex -2.9288 1.15959 150
      vertex -2.94042 1.11432 60.3814
    endloop
  endfacet
  facet normal -0.968583 0.24869 6.66752e-10
    outer loop
      vertex -3.02385 0.78938 61.9523
      vertex -2.9288 1.15959 150
      vertex -2.97272 0.988514 61.278
    endloop
  endfacet
  facet normal -0.968583 0.24869 4.74986e-10
    outer loop
      vertex -3.0901 0.531373 62.3156
      vertex -2.9288 1.15959 150
      vertex -3.02385 0.78938 61.9523
    endloop
  endfacet
  facet normal -0.968583 0.248689 4.18514e-09
    outer loop
      vertex -3.12516 0.394799 62.3156
      vertex -2.9288 1.15959 150
      vertex -3.0901 0.531373 62.3156
    endloop
  endfacet
  facet normal -0.968583 0.24869 0
    outer loop
      vertex -2.9288 1.15959 150
      vertex -3.12516 0.394799 62.3156
      vertex -3.12516 0.394799 150
    endloop
  endfacet
  facet normal -0.968583 0.248691 0
    outer loop
      vertex -2.9288 1.15959 0
      vertex -2.94042 1.11432 8.20621
      vertex -2.9288 1.15959 8.51801
    endloop
  endfacet
  facet normal -0.968583 0.24869 -5.64871e-09
    outer loop
      vertex -2.9288 1.15959 0
      vertex -2.97272 0.988514 7.90734
      vertex -2.94042 1.11432 8.20621
    endloop
  endfacet
  facet normal -0.968583 0.24869 -7.35044e-09
    outer loop
      vertex -2.9288 1.15959 0
      vertex -3.02385 0.78938 7.68257
      vertex -2.97272 0.988514 7.90734
    endloop
  endfacet
  facet normal -0.968583 0.24869 -5.3548e-09
    outer loop
      vertex -2.9288 1.15959 0
      vertex -3.0901 0.531373 7.56148
      vertex -3.02385 0.78938 7.68257
    endloop
  endfacet
  facet normal -0.968583 0.24869 -8.66661e-09
    outer loop
      vertex -3.12516 0.394799 0
      vertex -3.0901 0.531373 7.56148
      vertex -2.9288 1.15959 0
    endloop
  endfacet
  facet normal -0.968583 0.248689 0
    outer loop
      vertex -3.0901 0.531373 7.56148
      vertex -3.12516 0.394799 0
      vertex -3.12516 0.394799 7.56148
    endloop
  endfacet
  facet normal -0.309017 0.951057 0
    outer loop
      vertex -0.590251 3.0942 0
      vertex -1.3412 2.8502 150
      vertex -0.590251 3.0942 150
    endloop
  endfacet
  facet normal -0.309017 0.951057 0
    outer loop
      vertex -1.3412 2.8502 150
      vertex -0.590251 3.0942 0
      vertex -1.3412 2.8502 0
    endloop
  endfacet
  facet normal 0.992115 -0.125332 0
    outer loop
      vertex 3.15 0 150
      vertex 3.13905 -0.0866989 62.4861
      vertex 3.15 0 62.4335
    endloop
  endfacet
  facet normal 0.992115 -0.125333 1.77443e-09
    outer loop
      vertex 3.15 0 150
      vertex 3.10101 -0.387829 62.4861
      vertex 3.13905 -0.0866989 62.4861
    endloop
  endfacet
  facet normal 0.992115 -0.125333 -3.54139e-10
    outer loop
      vertex 3.05104 -0.783373 150
      vertex 3.10101 -0.387829 62.4861
      vertex 3.15 0 150
    endloop
  endfacet
  facet normal 0.992115 -0.125333 3.46542e-10
    outer loop
      vertex 3.10101 -0.387829 62.4861
      vertex 3.05104 -0.783373 150
      vertex 3.06589 -0.665812 62.1283
    endloop
  endfacet
  facet normal 0.992115 -0.125333 0
    outer loop
      vertex 3.06589 -0.665812 62.1283
      vertex 3.05104 -0.783373 150
      vertex 3.05104 -0.783373 61.7851
    endloop
  endfacet
  facet normal 0.992115 -0.125332 0
    outer loop
      vertex 3.13905 -0.0866989 7.50463
      vertex 3.15 0 0
      vertex 3.15 0 7.52217
    endloop
  endfacet
  facet normal 0.992115 -0.125333 -2.06922e-08
    outer loop
      vertex 3.10101 -0.387829 7.50463
      vertex 3.15 0 0
      vertex 3.13905 -0.0866989 7.50463
    endloop
  endfacet
  facet normal 0.992115 -0.125333 -3.97477e-09
    outer loop
      vertex 3.05104 -0.783373 0
      vertex 3.10101 -0.387829 7.50463
      vertex 3.06589 -0.665812 7.62389
    endloop
  endfacet
  facet normal 0.992115 -0.125333 0
    outer loop
      vertex 3.05104 -0.783373 0
      vertex 3.06589 -0.665812 7.62389
      vertex 3.05104 -0.783373 7.73831
    endloop
  endfacet
  facet normal 0.992115 -0.125333 4.12973e-09
    outer loop
      vertex 3.10101 -0.387829 7.50463
      vertex 3.05104 -0.783373 0
      vertex 3.15 0 0
    endloop
  endfacet
  facet normal -0.968583 -0.248689 0
    outer loop
      vertex -3.0901 -0.531373 62.3156
      vertex -3.12516 -0.394799 150
      vertex -3.12516 -0.394799 62.3156
    endloop
  endfacet
  facet normal -0.968583 -0.24869 4.74986e-10
    outer loop
      vertex -2.9288 -1.15959 150
      vertex -3.0901 -0.531373 62.3156
      vertex -3.02385 -0.78938 61.9523
    endloop
  endfacet
  facet normal -0.968583 -0.24869 6.66752e-10
    outer loop
      vertex -2.9288 -1.15959 150
      vertex -3.02385 -0.78938 61.9523
      vertex -2.97272 -0.988514 61.278
    endloop
  endfacet
  facet normal -0.968583 -0.24869 5.22142e-10
    outer loop
      vertex -2.9288 -1.15959 150
      vertex -2.97272 -0.988514 61.278
      vertex -2.94042 -1.11432 60.3814
    endloop
  endfacet
  facet normal -0.968583 -0.248691 -0
    outer loop
      vertex -2.9288 -1.15959 150
      vertex -2.94042 -1.11432 60.3814
      vertex -2.9288 -1.15959 59.446
    endloop
  endfacet
  facet normal -0.968583 -0.24869 7.47366e-10
    outer loop
      vertex -3.0901 -0.531373 62.3156
      vertex -2.9288 -1.15959 150
      vertex -3.12516 -0.394799 150
    endloop
  endfacet
  facet normal -0.968583 -0.248689 0
    outer loop
      vertex -3.12516 -0.394799 0
      vertex -3.0901 -0.531373 7.56148
      vertex -3.12516 -0.394799 7.56148
    endloop
  endfacet
  facet normal -0.968583 -0.24869 -8.66661e-09
    outer loop
      vertex -2.9288 -1.15959 0
      vertex -3.0901 -0.531373 7.56148
      vertex -3.12516 -0.394799 0
    endloop
  endfacet
  facet normal -0.968583 -0.24869 -5.3548e-09
    outer loop
      vertex -3.0901 -0.531373 7.56148
      vertex -2.9288 -1.15959 0
      vertex -3.02385 -0.78938 7.68257
    endloop
  endfacet
  facet normal -0.968583 -0.24869 -7.35044e-09
    outer loop
      vertex -3.02385 -0.78938 7.68257
      vertex -2.9288 -1.15959 0
      vertex -2.97272 -0.988514 7.90734
    endloop
  endfacet
  facet normal -0.968583 -0.24869 -5.64871e-09
    outer loop
      vertex -2.97272 -0.988514 7.90734
      vertex -2.9288 -1.15959 0
      vertex -2.94042 -1.11432 8.20621
    endloop
  endfacet
  facet normal -0.968583 -0.248691 0
    outer loop
      vertex -2.94042 -1.11432 8.20621
      vertex -2.9288 -1.15959 0
      vertex -2.9288 -1.15959 8.51801
    endloop
  endfacet
  facet normal -0.876306 -0.481754 0
    outer loop
      vertex -2.5484 -1.85152 0
      vertex -2.9288 -1.15959 8.51801
      vertex -2.9288 -1.15959 0
    endloop
  endfacet
  facet normal -0.876306 -0.481754 0
    outer loop
      vertex -2.92653 -1.16372 8.54348
      vertex -2.5484 -1.85152 0
      vertex -2.92653 -1.16372 59.3696
    endloop
  endfacet
  facet normal -0.876306 -0.481754 3.62947e-08
    outer loop
      vertex -2.9288 -1.15959 8.51801
      vertex -2.5484 -1.85152 0
      vertex -2.92653 -1.16372 8.54348
    endloop
  endfacet
  facet normal -0.876306 -0.481754 -4.49035e-09
    outer loop
      vertex -2.5484 -1.85152 150
      vertex -2.9288 -1.15959 59.446
      vertex -2.92653 -1.16372 59.3696
    endloop
  endfacet
  facet normal -0.876306 -0.481754 -0
    outer loop
      vertex -2.5484 -1.85152 150
      vertex -2.92653 -1.16372 59.3696
      vertex -2.5484 -1.85152 0
    endloop
  endfacet
  facet normal -0.876306 -0.481754 0
    outer loop
      vertex -2.9288 -1.15959 59.446
      vertex -2.5484 -1.85152 150
      vertex -2.9288 -1.15959 150
    endloop
  endfacet
  facet normal -0.728969 -0.684547 0
    outer loop
      vertex -2.00788 -2.42712 0
      vertex -2.5484 -1.85152 150
      vertex -2.5484 -1.85152 0
    endloop
  endfacet
  facet normal -0.728969 -0.684547 0
    outer loop
      vertex -2.5484 -1.85152 150
      vertex -2.00788 -2.42712 0
      vertex -2.00788 -2.42712 150
    endloop
  endfacet
  facet normal 0.637425 -0.770513 0
    outer loop
      vertex 1.68785 -2.65963 0
      vertex 2.29625 -2.15632 150
      vertex 1.68785 -2.65963 150
    endloop
  endfacet
  facet normal 0.637425 -0.770513 0
    outer loop
      vertex 2.29625 -2.15632 150
      vertex 1.68785 -2.65963 0
      vertex 2.29625 -2.15632 0
    endloop
  endfacet
  facet normal 0.809017 -0.587786 0
    outer loop
      vertex 2.29625 -2.15632 150
      vertex 2.76037 -1.51752 0
      vertex 2.76037 -1.51752 150
    endloop
  endfacet
  facet normal 0.809017 -0.587786 0
    outer loop
      vertex 2.76037 -1.51752 0
      vertex 2.29625 -2.15632 150
      vertex 2.29625 -2.15632 0
    endloop
  endfacet
  facet normal -0.309017 -0.951057 0
    outer loop
      vertex -1.3412 -2.8502 0
      vertex -0.590251 -3.0942 150
      vertex -1.3412 -2.8502 150
    endloop
  endfacet
  facet normal -0.309017 -0.951057 -0
    outer loop
      vertex -0.590251 -3.0942 150
      vertex -1.3412 -2.8502 0
      vertex -0.590251 -3.0942 0
    endloop
  endfacet
  facet normal -0.535827 -0.844328 0
    outer loop
      vertex -2.00788 -2.42712 0
      vertex -1.3412 -2.8502 150
      vertex -2.00788 -2.42712 150
    endloop
  endfacet
  facet normal -0.535827 -0.844328 -0
    outer loop
      vertex -1.3412 -2.8502 150
      vertex -2.00788 -2.42712 0
      vertex -1.3412 -2.8502 0
    endloop
  endfacet
  facet normal -0.0627909 -0.998027 0
    outer loop
      vertex -0.590251 -3.0942 0
      vertex 0.197789 -3.14378 150
      vertex -0.590251 -3.0942 150
    endloop
  endfacet
  facet normal -0.0627909 -0.998027 -0
    outer loop
      vertex 0.197789 -3.14378 150
      vertex -0.590251 -3.0942 0
      vertex 0.197789 -3.14378 0
    endloop
  endfacet
  facet normal 0.927954 0.117217 0.353782
    outer loop
      vertex 3.15 0 150
      vertex 0.096858 0.024869 158
      vertex 0.0999994 0 158
    endloop
  endfacet
  facet normal 0.927953 0.117227 0.353782
    outer loop
      vertex 3.05104 0.783373 150
      vertex 0.096858 0.024869 158
      vertex 3.15 0 150
    endloop
  endfacet
  facet normal -0.935328 0 0.353782
    outer loop
      vertex -3.12516 0.394799 150
      vertex -0.0992107 -0.0125332 158
      vertex -0.0992107 0.0125332 158
    endloop
  endfacet
  facet normal -0.935328 0 0.353782
    outer loop
      vertex -0.0992107 -0.0125332 158
      vertex -3.12516 0.394799 150
      vertex -3.12516 -0.394799 150
    endloop
  endfacet
  facet normal 0.869642 0.344327 0.353782
    outer loop
      vertex 2.76037 1.51752 150
      vertex 0.0876303 0.0481749 158
      vertex 0.096858 0.024869 158
    endloop
  endfacet
  facet normal -0.0587301 0.933482 0.353782
    outer loop
      vertex 0.197789 3.14378 150
      vertex -0.590251 3.0942 150
      vertex -0.0187378 0.0982285 158
    endloop
  endfacet
  facet normal 0.175261 -0.918761 0.353782
    outer loop
      vertex 0.030901 -0.0951052 158
      vertex 0.00627899 -0.099802 158
      vertex 0.197789 -3.14378 150
    endloop
  endfacet
  facet normal 0.869646 -0.344318 0.353782
    outer loop
      vertex 3.05104 -0.783373 150
      vertex 0.096858 -0.024869 158
      vertex 2.76037 -1.51752 150
    endloop
  endfacet
  facet normal 0.869646 0.344318 0.353782
    outer loop
      vertex 2.76037 1.51752 150
      vertex 0.096858 0.024869 158
      vertex 3.05104 0.783373 150
    endloop
  endfacet
  facet normal 0.398243 0.84631 0.353782
    outer loop
      vertex 0.973403 2.99583 150
      vertex 0.0535822 0.0844326 158
      vertex 1.68785 2.65963 150
    endloop
  endfacet
  facet normal -0.905943 -0.232607 0.353782
    outer loop
      vertex -0.0929775 -0.0368118 158
      vertex -3.12516 -0.394799 150
      vertex -2.9288 -1.15959 150
    endloop
  endfacet
  facet normal -0.681825 -0.640276 0.353782
    outer loop
      vertex -0.0637417 -0.0770512 158
      vertex -2.5484 -1.85152 150
      vertex -2.00788 -2.42712 150
    endloop
  endfacet
  facet normal 0.756682 -0.54979 0.353783
    outer loop
      vertex 0.0876303 -0.0481749 158
      vertex 0.072896 -0.0684538 158
      vertex 2.29625 -2.15632 150
    endloop
  endfacet
  facet normal -0.501174 0.789724 0.353782
    outer loop
      vertex -1.3412 2.8502 150
      vertex -2.00788 2.42712 150
      vertex -0.0637417 0.0770512 158
    endloop
  endfacet
  facet normal -0.819634 0.450598 0.353782
    outer loop
      vertex -2.5484 1.85152 150
      vertex -2.9288 1.15959 150
      vertex -0.0929775 0.0368118 158
    endloop
  endfacet
  facet normal -0.819626 0.450611 0.353783
    outer loop
      vertex -0.0809011 0.0587778 158
      vertex -2.5484 1.85152 150
      vertex -0.0929775 0.0368118 158
    endloop
  endfacet
  facet normal -0.681825 0.640276 0.353782
    outer loop
      vertex -2.00788 2.42712 150
      vertex -2.5484 1.85152 150
      vertex -0.0637417 0.0770512 158
    endloop
  endfacet
  facet normal 0.596201 0.720682 0.353782
    outer loop
      vertex 1.68785 2.65963 150
      vertex 0.0535822 0.0844326 158
      vertex 2.29625 2.15632 150
    endloop
  endfacet
  facet normal 0.398231 0.846316 0.353783
    outer loop
      vertex 0.973403 2.99583 150
      vertex 0.030901 0.0951052 158
      vertex 0.0535822 0.0844326 158
    endloop
  endfacet
  facet normal 0.175263 0.918761 0.353782
    outer loop
      vertex 0.197789 3.14378 150
      vertex 0.030901 0.0951052 158
      vertex 0.973403 2.99583 150
    endloop
  endfacet
  facet normal -0.905947 -0.23259 0.353783
    outer loop
      vertex -0.0992107 -0.0125332 158
      vertex -3.12516 -0.394799 150
      vertex -0.0929775 -0.0368118 158
    endloop
  endfacet
  facet normal 0.398231 -0.846316 0.353783
    outer loop
      vertex 0.0535822 -0.0844326 158
      vertex 0.030901 -0.0951052 158
      vertex 0.973403 -2.99583 150
    endloop
  endfacet
  facet normal 0.175263 -0.918761 0.353782
    outer loop
      vertex 0.973403 -2.99583 150
      vertex 0.030901 -0.0951052 158
      vertex 0.197789 -3.14378 150
    endloop
  endfacet
  facet normal 0.398243 -0.84631 0.353782
    outer loop
      vertex 1.68785 -2.65963 150
      vertex 0.0535822 -0.0844326 158
      vertex 0.973403 -2.99583 150
    endloop
  endfacet
  facet normal 0.596201 -0.720682 0.353782
    outer loop
      vertex 2.29625 -2.15632 150
      vertex 0.0535822 -0.0844326 158
      vertex 1.68785 -2.65963 150
    endloop
  endfacet
  facet normal 0.869642 -0.344327 0.353782
    outer loop
      vertex 0.096858 -0.024869 158
      vertex 0.0876303 -0.0481749 158
      vertex 2.76037 -1.51752 150
    endloop
  endfacet
  facet normal 0.756696 -0.549773 0.353782
    outer loop
      vertex 2.76037 -1.51752 150
      vertex 0.0876303 -0.0481749 158
      vertex 2.29625 -2.15632 150
    endloop
  endfacet
  facet normal 0.927953 -0.117227 0.353782
    outer loop
      vertex 3.15 0 150
      vertex 0.096858 -0.024869 158
      vertex 3.05104 -0.783373 150
    endloop
  endfacet
  facet normal 0.927954 -0.117217 0.353782
    outer loop
      vertex 0.0999994 0 158
      vertex 0.096858 -0.024869 158
      vertex 3.15 0 150
    endloop
  endfacet
  facet normal -0.681831 0.640269 0.353782
    outer loop
      vertex -0.0637417 0.0770512 158
      vertex -2.5484 1.85152 150
      vertex -0.0809011 0.0587778 158
    endloop
  endfacet
  facet normal -0.289053 0.889543 0.353783
    outer loop
      vertex -0.0187378 0.0982285 158
      vertex -1.3412 2.8502 150
      vertex -0.0425777 0.0904818 158
    endloop
  endfacet
  facet normal -0.289032 0.88955 0.353782
    outer loop
      vertex -0.590251 3.0942 150
      vertex -1.3412 2.8502 150
      vertex -0.0187378 0.0982285 158
    endloop
  endfacet
  facet normal 0.756696 0.549773 0.353782
    outer loop
      vertex 2.29625 2.15632 150
      vertex 0.0876303 0.0481749 158
      vertex 2.76037 1.51752 150
    endloop
  endfacet
  facet normal 0.175261 0.918761 0.353782
    outer loop
      vertex 0.197789 3.14378 150
      vertex 0.00627899 0.099802 158
      vertex 0.030901 0.0951052 158
    endloop
  endfacet
  facet normal -0.0587163 0.933483 0.353782
    outer loop
      vertex 0.197789 3.14378 150
      vertex -0.0187378 0.0982285 158
      vertex 0.00627899 0.099802 158
    endloop
  endfacet
  facet normal -0.289032 -0.88955 0.353782
    outer loop
      vertex -0.0187378 -0.0982285 158
      vertex -1.3412 -2.8502 150
      vertex -0.590251 -3.0942 150
    endloop
  endfacet
  facet normal -0.0587301 -0.933482 0.353782
    outer loop
      vertex -0.0187378 -0.0982285 158
      vertex -0.590251 -3.0942 150
      vertex 0.197789 -3.14378 150
    endloop
  endfacet
  facet normal -0.819634 -0.450598 0.353782
    outer loop
      vertex -0.0929775 -0.0368118 158
      vertex -2.9288 -1.15959 150
      vertex -2.5484 -1.85152 150
    endloop
  endfacet
  facet normal 0.596223 -0.720663 0.353783
    outer loop
      vertex 0.072896 -0.0684538 158
      vertex 0.0535822 -0.0844326 158
      vertex 2.29625 -2.15632 150
    endloop
  endfacet
  facet normal -0.905943 0.232607 0.353782
    outer loop
      vertex -2.9288 1.15959 150
      vertex -3.12516 0.394799 150
      vertex -0.0929775 0.0368118 158
    endloop
  endfacet
  facet normal 0 0 1
    outer loop
      vertex 0.096858 0.024869 158
      vertex 0.096858 -0.024869 158
      vertex 0.0999994 0 158
    endloop
  endfacet
  facet normal 0 0 1
    outer loop
      vertex 0.0876303 0.0481749 158
      vertex 0.096858 -0.024869 158
      vertex 0.096858 0.024869 158
    endloop
  endfacet
  facet normal 0 0 1
    outer loop
      vertex 0.0876303 0.0481749 158
      vertex 0.0876303 -0.0481749 158
      vertex 0.096858 -0.024869 158
    endloop
  endfacet
  facet normal 0 0 1
    outer loop
      vertex 0.072896 0.0684538 158
      vertex 0.0876303 -0.0481749 158
      vertex 0.0876303 0.0481749 158
    endloop
  endfacet
  facet normal 0 0 1
    outer loop
      vertex 0.072896 0.0684538 158
      vertex 0.072896 -0.0684538 158
      vertex 0.0876303 -0.0481749 158
    endloop
  endfacet
  facet normal 0 0 1
    outer loop
      vertex 0.0535822 0.0844326 158
      vertex 0.072896 -0.0684538 158
      vertex 0.072896 0.0684538 158
    endloop
  endfacet
  facet normal 0 0 1
    outer loop
      vertex 0.0535822 0.0844326 158
      vertex 0.0535822 -0.0844326 158
      vertex 0.072896 -0.0684538 158
    endloop
  endfacet
  facet normal 0 0 1
    outer loop
      vertex 0.030901 0.0951052 158
      vertex 0.0535822 -0.0844326 158
      vertex 0.0535822 0.0844326 158
    endloop
  endfacet
  facet normal 0 0 1
    outer loop
      vertex 0.030901 0.0951052 158
      vertex 0.030901 -0.0951052 158
      vertex 0.0535822 -0.0844326 158
    endloop
  endfacet
  facet normal 0 0 1
    outer loop
      vertex 0.00627899 0.099802 158
      vertex 0.030901 -0.0951052 158
      vertex 0.030901 0.0951052 158
    endloop
  endfacet
  facet normal 0 0 1
    outer loop
      vertex 0.00627899 0.099802 158
      vertex 0.00627899 -0.099802 158
      vertex 0.030901 -0.0951052 158
    endloop
  endfacet
  facet normal -0 0 1
    outer loop
      vertex -0.0187378 0.0982285 158
      vertex 0.00627899 -0.099802 158
      vertex 0.00627899 0.099802 158
    endloop
  endfacet
  facet normal 0 0 1
    outer loop
      vertex -0.0187378 0.0982285 158
      vertex -0.0187378 -0.0982285 158
      vertex 0.00627899 -0.099802 158
    endloop
  endfacet
  facet normal -0 0 1
    outer loop
      vertex -0.0425777 0.0904818 158
      vertex -0.0187378 -0.0982285 158
      vertex -0.0187378 0.0982285 158
    endloop
  endfacet
  facet normal 0 0 1
    outer loop
      vertex -0.0425777 0.0904818 158
      vertex -0.0425777 -0.0904818 158
      vertex -0.0187378 -0.0982285 158
    endloop
  endfacet
  facet normal -0 0 1
    outer loop
      vertex -0.0637417 0.0770512 158
      vertex -0.0425777 -0.0904818 158
      vertex -0.0425777 0.0904818 158
    endloop
  endfacet
  facet normal 0 0 1
    outer loop
      vertex -0.0637417 0.0770512 158
      vertex -0.0637417 -0.0770512 158
      vertex -0.0425777 -0.0904818 158
    endloop
  endfacet
  facet normal -0 0 1
    outer loop
      vertex -0.0809011 0.0587778 158
      vertex -0.0637417 -0.0770512 158
      vertex -0.0637417 0.0770512 158
    endloop
  endfacet
  facet normal 0 0 1
    outer loop
      vertex -0.0809011 0.0587778 158
      vertex -0.0809011 -0.0587778 158
      vertex -0.0637417 -0.0770512 158
    endloop
  endfacet
  facet normal -0 0 1
    outer loop
      vertex -0.0929775 0.0368118 158
      vertex -0.0809011 -0.0587778 158
      vertex -0.0809011 0.0587778 158
    endloop
  endfacet
  facet normal 0 0 1
    outer loop
      vertex -0.0929775 0.0368118 158
      vertex -0.0929775 -0.0368118 158
      vertex -0.0809011 -0.0587778 158
    endloop
  endfacet
  facet normal -0 0 1
    outer loop
      vertex -0.0992107 0.0125332 158
      vertex -0.0929775 -0.0368118 158
      vertex -0.0929775 0.0368118 158
    endloop
  endfacet
  facet normal 0 0 1
    outer loop
      vertex -0.0929775 -0.0368118 158
      vertex -0.0992107 0.0125332 158
      vertex -0.0992107 -0.0125332 158
    endloop
  endfacet
  facet normal -0.501162 0.789731 0.353783
    outer loop
      vertex -0.0425777 0.0904818 158
      vertex -1.3412 2.8502 150
      vertex -0.0637417 0.0770512 158
    endloop
  endfacet
  facet normal 0.756682 0.54979 0.353783
    outer loop
      vertex 2.29625 2.15632 150
      vertex 0.072896 0.0684538 158
      vertex 0.0876303 0.0481749 158
    endloop
  endfacet
  facet normal 0.596223 0.720663 0.353783
    outer loop
      vertex 2.29625 2.15632 150
      vertex 0.0535822 0.0844326 158
      vertex 0.072896 0.0684538 158
    endloop
  endfacet
  facet normal -0.0587163 -0.933483 0.353782
    outer loop
      vertex 0.00627899 -0.099802 158
      vertex -0.0187378 -0.0982285 158
      vertex 0.197789 -3.14378 150
    endloop
  endfacet
  facet normal -0.289053 -0.889543 0.353783
    outer loop
      vertex -0.0425777 -0.0904818 158
      vertex -1.3412 -2.8502 150
      vertex -0.0187378 -0.0982285 158
    endloop
  endfacet
  facet normal -0.501174 -0.789724 0.353782
    outer loop
      vertex -0.0637417 -0.0770512 158
      vertex -2.00788 -2.42712 150
      vertex -1.3412 -2.8502 150
    endloop
  endfacet
  facet normal -0.819626 -0.450611 0.353783
    outer loop
      vertex -0.0929775 -0.0368118 158
      vertex -2.5484 -1.85152 150
      vertex -0.0809011 -0.0587778 158
    endloop
  endfacet
  facet normal -0.681831 -0.640269 0.353782
    outer loop
      vertex -0.0809011 -0.0587778 158
      vertex -2.5484 -1.85152 150
      vertex -0.0637417 -0.0770512 158
    endloop
  endfacet
  facet normal -0.905947 0.23259 0.353783
    outer loop
      vertex -0.0929775 0.0368118 158
      vertex -3.12516 0.394799 150
      vertex -0.0992107 0.0125332 158
    endloop
  endfacet
  facet normal -0.501162 -0.789731 0.353783
    outer loop
      vertex -0.0637417 -0.0770512 158
      vertex -1.3412 -2.8502 150
      vertex -0.0425777 -0.0904818 158
    endloop
  endfacet
  facet normal 0.424692 0.902515 0.0714396
    outer loop
      vertex 8.34 0.375 37.5
      vertex 2.90504 1.15212 59.992
      vertex 2.94041 1.06277 60.9105
    endloop
  endfacet
  facet normal 0.632549 0.764622 0.123433
    outer loop
      vertex 8.34 0.375 37.5
      vertex 2.94041 1.06277 60.9105
      vertex 3.00625 0.896489 61.6031
    endloop
  endfacet
  facet normal 0.912628 0.361336 0.191171
    outer loop
      vertex 8.34 0.375 37.5
      vertex 3.06589 0.665812 62.1283
      vertex 3.10101 0.387829 62.4861
    endloop
  endfacet
  facet normal 0.187274 0.981719 -0.0339996
    outer loop
      vertex 2.90504 1.15212 8.33601
      vertex 2.8999 1.16509 8.68206
      vertex 8.34 0.375 15.8333
    endloop
  endfacet
  facet normal 0.143726 0.989617 0
    outer loop
      vertex 2.8999 1.16509 8.68206
      vertex 8.34 0.375 37.5
      vertex 8.34 0.375 15.8333
    endloop
  endfacet
  facet normal 0.143726 0.989617 0
    outer loop
      vertex 8.34 0.375 37.5
      vertex 2.8999 1.16509 8.68206
      vertex 2.8999 1.16509 58.9538
    endloop
  endfacet
  facet normal -0.949159 0.243702 0.199266
    outer loop
      vertex -8.34 0.375 37.5
      vertex -3.12516 0.394799 62.3156
      vertex -3.0901 0.531373 62.3156
    endloop
  endfacet
  facet normal -0.949158 0.243706 0.199265
    outer loop
      vertex -3.12516 0.394799 62.3156
      vertex -8.34 0.375 37.5
      vertex -3.12516 0.238346 62.5069
    endloop
  endfacet
  facet normal 0.798056 0.579821 0.164056
    outer loop
      vertex 3.05104 0.783373 61.7851
      vertex 8.34 0.375 37.5
      vertex 3.00625 0.896489 61.6031
    endloop
  endfacet
  facet normal 0.798055 0.579822 0.164055
    outer loop
      vertex 8.34 0.375 37.5
      vertex 3.05104 0.783373 61.7851
      vertex 3.06589 0.665812 62.1283
    endloop
  endfacet
  facet normal 0.424692 -0.902515 0.0714396
    outer loop
      vertex 2.94041 -1.06277 60.9105
      vertex 2.90504 -1.15212 59.992
      vertex 8.34 -0.375 37.5
    endloop
  endfacet
  facet normal -0.144173 0.989552 0
    outer loop
      vertex -2.92653 1.16372 8.54348
      vertex -8.34 0.375 37.5
      vertex -2.92653 1.16372 59.3696
    endloop
  endfacet
  facet normal -0.144173 0.989552 0
    outer loop
      vertex -8.34 0.375 37.5
      vertex -2.92653 1.16372 8.54348
      vertex -8.34 0.375 15.8333
    endloop
  endfacet
  facet normal -0.533211 0.840207 0.0986801
    outer loop
      vertex -2.94042 1.11432 60.3814
      vertex -8.34 0.375 37.5
      vertex -2.97272 0.988514 61.278
    endloop
  endfacet
  facet normal -0.72123 -0.67728 0.145325
    outer loop
      vertex -3.02385 -0.78938 61.9523
      vertex -8.34 -0.375 37.5
      vertex -2.97272 -0.988514 61.278
    endloop
  endfacet
  facet normal 0.841737 -0.106336 -0.529313
    outer loop
      vertex 8.34 -0.375 15.8333
      vertex 3.10101 -0.387829 7.50463
      vertex 3.13905 -0.0866989 7.50463
    endloop
  endfacet
  facet normal 0.841737 0.106336 -0.529313
    outer loop
      vertex 3.13905 0.0866989 7.50463
      vertex 3.10101 0.387829 7.50463
      vertex 8.34 0.375 15.8333
    endloop
  endfacet
  facet normal 0.143726 -0.989617 0
    outer loop
      vertex 2.8999 -1.16509 8.68206
      vertex 8.34 -0.375 37.5
      vertex 2.8999 -1.16509 58.9538
    endloop
  endfacet
  facet normal 0.143726 -0.989617 0
    outer loop
      vertex 8.34 -0.375 37.5
      vertex 2.8999 -1.16509 8.68206
      vertex 8.34 -0.375 15.8333
    endloop
  endfacet
  facet normal 0.848204 -2.62455e-06 -0.52967
    outer loop
      vertex 8.34 0.375 15.8333
      vertex 3.15 0 7.52217
      vertex 3.13905 0.0866989 7.50463
    endloop
  endfacet
  facet normal 0.848204 0 -0.52967
    outer loop
      vertex 8.34 -0.375 15.8333
      vertex 3.15 0 7.52217
      vertex 8.34 0.375 15.8333
    endloop
  endfacet
  facet normal 0.848204 2.62455e-06 -0.52967
    outer loop
      vertex 3.15 0 7.52217
      vertex 8.34 -0.375 15.8333
      vertex 3.13905 -0.0866989 7.50463
    endloop
  endfacet
  facet normal -0.144173 -0.989552 0
    outer loop
      vertex -2.92653 -1.16372 8.54348
      vertex -8.34 -0.375 37.5
      vertex -8.34 -0.375 15.8333
    endloop
  endfacet
  facet normal -0.144173 -0.989552 0
    outer loop
      vertex -8.34 -0.375 37.5
      vertex -2.92653 -1.16372 8.54348
      vertex -2.92653 -1.16372 59.3696
    endloop
  endfacet
  facet normal 0.18737 0.982224 0.011339
    outer loop
      vertex 8.34 0.375 37.5
      vertex 2.8999 1.16509 58.9538
      vertex 2.90504 1.15212 59.992
    endloop
  endfacet
  facet normal -0.847767 0 -0.53037
    outer loop
      vertex -3.12516 -0.238346 7.4977
      vertex -8.34 0.375 15.8333
      vertex -3.12516 0.238346 7.4977
    endloop
  endfacet
  facet normal -0.847767 -0 -0.53037
    outer loop
      vertex -8.34 0.375 15.8333
      vertex -3.12516 -0.238346 7.4977
      vertex -8.34 -0.375 15.8333
    endloop
  endfacet
  facet normal -1 0 0
    outer loop
      vertex -8.34 -0.375 15.8333
      vertex -8.34 0.375 37.5
      vertex -8.34 0.375 15.8333
    endloop
  endfacet
  facet normal -1 -0 0
    outer loop
      vertex -8.34 0.375 37.5
      vertex -8.34 -0.375 15.8333
      vertex -8.34 -0.375 37.5
    endloop
  endfacet
  facet normal -0.862091 0.473937 0.179395
    outer loop
      vertex -3.02385 0.78938 61.9523
      vertex -8.34 0.375 37.5
      vertex -3.0901 0.531373 62.3156
    endloop
  endfacet
  facet normal -0.308742 0.950211 0.0421553
    outer loop
      vertex -2.9288 1.15959 59.446
      vertex -8.34 0.375 37.5
      vertex -2.94042 1.11432 60.3814
    endloop
  endfacet
  facet normal -0.30874 0.950212 0.0421547
    outer loop
      vertex -8.34 0.375 37.5
      vertex -2.9288 1.15959 59.446
      vertex -2.92653 1.16372 59.3696
    endloop
  endfacet
  facet normal -0.533211 -0.840207 0.0986801
    outer loop
      vertex -2.97272 -0.988514 61.278
      vertex -8.34 -0.375 37.5
      vertex -2.94042 -1.11432 60.3814
    endloop
  endfacet
  facet normal -0.949158 -0.243706 0.199265
    outer loop
      vertex -8.34 -0.375 37.5
      vertex -3.12516 -0.394799 62.3156
      vertex -3.12516 -0.238346 62.5069
    endloop
  endfacet
  facet normal -0.949159 -0.243702 0.199266
    outer loop
      vertex -3.12516 -0.394799 62.3156
      vertex -8.34 -0.375 37.5
      vertex -3.0901 -0.531373 62.3156
    endloop
  endfacet
  facet normal 0.18737 -0.982224 0.011339
    outer loop
      vertex 2.90504 -1.15212 59.992
      vertex 2.8999 -1.16509 58.9538
      vertex 8.34 -0.375 37.5
    endloop
  endfacet
  facet normal 0.597201 0.721891 -0.349605
    outer loop
      vertex 3.00625 0.896489 7.79895
      vertex 2.94041 1.06277 8.02985
      vertex 8.34 0.375 15.8333
    endloop
  endfacet
  facet normal 0.802787 0.317848 -0.504486
    outer loop
      vertex 3.10101 0.387829 7.50463
      vertex 3.06589 0.665812 7.62389
      vertex 8.34 0.375 15.8333
    endloop
  endfacet
  facet normal 1 -0 0
    outer loop
      vertex 8.34 -0.375 37.5
      vertex 8.34 0.375 15.8333
      vertex 8.34 0.375 37.5
    endloop
  endfacet
  facet normal 1 0 0
    outer loop
      vertex 8.34 0.375 15.8333
      vertex 8.34 -0.375 37.5
      vertex 8.34 -0.375 15.8333
    endloop
  endfacet
  facet normal 0.971333 -0.122708 0.203603
    outer loop
      vertex 3.13905 -0.0866989 62.4861
      vertex 3.10101 -0.387829 62.4861
      vertex 8.34 -0.375 37.5
    endloop
  endfacet
  facet normal 0.187274 -0.981719 -0.0339996
    outer loop
      vertex 8.34 -0.375 15.8333
      vertex 2.8999 -1.16509 8.68206
      vertex 2.90504 -1.15212 8.33601
    endloop
  endfacet
  facet normal -0.72123 0.67728 0.145325
    outer loop
      vertex -2.97272 0.988514 61.278
      vertex -8.34 0.375 37.5
      vertex -3.02385 0.78938 61.9523
    endloop
  endfacet
  facet normal -0.30874 -0.950212 0.0421547
    outer loop
      vertex -2.9288 -1.15959 59.446
      vertex -8.34 -0.375 37.5
      vertex -2.92653 -1.16372 59.3696
    endloop
  endfacet
  facet normal -0.308742 -0.950211 0.0421553
    outer loop
      vertex -8.34 -0.375 37.5
      vertex -2.9288 -1.15959 59.446
      vertex -2.94042 -1.11432 60.3814
    endloop
  endfacet
  facet normal -0.862091 -0.473937 0.179395
    outer loop
      vertex -3.0901 -0.531373 62.3156
      vertex -8.34 -0.375 37.5
      vertex -3.02385 -0.78938 61.9523
    endloop
  endfacet
  facet normal -0.978941 0 0.204144
    outer loop
      vertex -8.34 0.375 37.5
      vertex -3.12516 -0.238346 62.5069
      vertex -3.12516 0.238346 62.5069
    endloop
  endfacet
  facet normal -0.978941 0 0.204144
    outer loop
      vertex -3.12516 -0.238346 62.5069
      vertex -8.34 0.375 37.5
      vertex -8.34 -0.375 37.5
    endloop
  endfacet
  facet normal 0.416278 0.884637 -0.210072
    outer loop
      vertex 2.94041 1.06277 8.02985
      vertex 2.90504 1.15212 8.33601
      vertex 8.34 0.375 15.8333
    endloop
  endfacet
  facet normal 0.723917 0.525957 -0.446445
    outer loop
      vertex 3.05104 0.783373 7.73831
      vertex 8.34 0.375 15.8333
      vertex 3.06589 0.665812 7.62389
    endloop
  endfacet
  facet normal 0.723918 0.525956 -0.446446
    outer loop
      vertex 8.34 0.375 15.8333
      vertex 3.05104 0.783373 7.73831
      vertex 3.00625 0.896489 7.79895
    endloop
  endfacet
  facet normal 0.912628 -0.361336 0.191171
    outer loop
      vertex 3.10101 -0.387829 62.4861
      vertex 3.06589 -0.665812 62.1283
      vertex 8.34 -0.375 37.5
    endloop
  endfacet
  facet normal 0.798055 -0.579822 0.164055
    outer loop
      vertex 3.05104 -0.783373 61.7851
      vertex 8.34 -0.375 37.5
      vertex 3.06589 -0.665812 62.1283
    endloop
  endfacet
  facet normal 0.798056 -0.579821 0.164056
    outer loop
      vertex 8.34 -0.375 37.5
      vertex 3.05104 -0.783373 61.7851
      vertex 3.00625 -0.896489 61.6031
    endloop
  endfacet
  facet normal 0.723917 -0.525957 -0.446445
    outer loop
      vertex 8.34 -0.375 15.8333
      vertex 3.05104 -0.783373 7.73831
      vertex 3.06589 -0.665812 7.62389
    endloop
  endfacet
  facet normal 0.723918 -0.525956 -0.446446
    outer loop
      vertex 3.05104 -0.783373 7.73831
      vertex 8.34 -0.375 15.8333
      vertex 3.00625 -0.896489 7.79895
    endloop
  endfacet
  facet normal 0.597201 -0.721891 -0.349605
    outer loop
      vertex 8.34 -0.375 15.8333
      vertex 2.94041 -1.06277 8.02985
      vertex 3.00625 -0.896489 7.79895
    endloop
  endfacet
  facet normal -0.513582 -0.809276 -0.285142
    outer loop
      vertex -2.94042 -1.11432 8.20621
      vertex -8.34 -0.375 15.8333
      vertex -2.97272 -0.988514 7.90734
    endloop
  endfacet
  facet normal -0.768787 0.422644 -0.479937
    outer loop
      vertex -3.0901 0.531373 7.56148
      vertex -8.34 0.375 15.8333
      vertex -3.02385 0.78938 7.68257
    endloop
  endfacet
  facet normal -0.667076 0.626425 -0.403238
    outer loop
      vertex -3.02385 0.78938 7.68257
      vertex -8.34 0.375 15.8333
      vertex -2.97272 0.988514 7.90734
    endloop
  endfacet
  facet normal 0.979015 2.5381e-06 0.203786
    outer loop
      vertex 3.15 0 62.4335
      vertex 8.34 0.375 37.5
      vertex 3.13905 0.0866989 62.4861
    endloop
  endfacet
  facet normal 0.979015 -2.5381e-06 0.203786
    outer loop
      vertex 8.34 -0.375 37.5
      vertex 3.15 0 62.4335
      vertex 3.13905 -0.0866989 62.4861
    endloop
  endfacet
  facet normal 0.979015 0 0.203786
    outer loop
      vertex 3.15 0 62.4335
      vertex 8.34 -0.375 37.5
      vertex 8.34 0.375 37.5
    endloop
  endfacet
  facet normal 0.971333 0.122708 0.203603
    outer loop
      vertex 8.34 0.375 37.5
      vertex 3.10101 0.387829 62.4861
      vertex 3.13905 0.0866989 62.4861
    endloop
  endfacet
  facet normal 0.632549 -0.764622 0.123433
    outer loop
      vertex 3.00625 -0.896489 61.6031
      vertex 2.94041 -1.06277 60.9105
      vertex 8.34 -0.375 37.5
    endloop
  endfacet
  facet normal 0.802787 -0.317848 -0.504486
    outer loop
      vertex 8.34 -0.375 15.8333
      vertex 3.06589 -0.665812 7.62389
      vertex 3.10101 -0.387829 7.50463
    endloop
  endfacet
  facet normal 0.416278 -0.884637 -0.210072
    outer loop
      vertex 8.34 -0.375 15.8333
      vertex 2.90504 -1.15212 8.33601
      vertex 2.94041 -1.06277 8.02985
    endloop
  endfacet
  facet normal -0.306572 -0.943528 -0.125577
    outer loop
      vertex -8.34 -0.375 15.8333
      vertex -2.9288 -1.15959 8.51801
      vertex -2.92653 -1.16372 8.54348
    endloop
  endfacet
  facet normal -0.30657 -0.943528 -0.125576
    outer loop
      vertex -2.9288 -1.15959 8.51801
      vertex -8.34 -0.375 15.8333
      vertex -2.94042 -1.11432 8.20621
    endloop
  endfacet
  facet normal -0.768787 -0.422644 -0.479937
    outer loop
      vertex -3.02385 -0.78938 7.68257
      vertex -8.34 -0.375 15.8333
      vertex -3.0901 -0.531373 7.56148
    endloop
  endfacet
  facet normal -0.826872 -0.212304 -0.520778
    outer loop
      vertex -3.12516 -0.394799 7.56148
      vertex -8.34 -0.375 15.8333
      vertex -3.12516 -0.238346 7.4977
    endloop
  endfacet
  facet normal -0.826872 -0.212304 -0.520778
    outer loop
      vertex -8.34 -0.375 15.8333
      vertex -3.12516 -0.394799 7.56148
      vertex -3.0901 -0.531373 7.56148
    endloop
  endfacet
  facet normal -0.826872 0.212304 -0.520778
    outer loop
      vertex -3.12516 0.394799 7.56148
      vertex -8.34 0.375 15.8333
      vertex -3.0901 0.531373 7.56148
    endloop
  endfacet
  facet normal -0.826872 0.212304 -0.520778
    outer loop
      vertex -8.34 0.375 15.8333
      vertex -3.12516 0.394799 7.56148
      vertex -3.12516 0.238346 7.4977
    endloop
  endfacet
  facet normal -0.513582 0.809276 -0.285142
    outer loop
      vertex -2.97272 0.988514 7.90734
      vertex -8.34 0.375 15.8333
      vertex -2.94042 1.11432 8.20621
    endloop
  endfacet
  facet normal -0.306572 0.943528 -0.125577
    outer loop
      vertex -2.9288 1.15959 8.51801
      vertex -8.34 0.375 15.8333
      vertex -2.92653 1.16372 8.54348
    endloop
  endfacet
  facet normal -0.30657 0.943528 -0.125576
    outer loop
      vertex -8.34 0.375 15.8333
      vertex -2.9288 1.15959 8.51801
      vertex -2.94042 1.11432 8.20621
    endloop
  endfacet
  facet normal -0.667076 -0.626425 -0.403238
    outer loop
      vertex -2.97272 -0.988514 7.90734
      vertex -8.34 -0.375 15.8333
      vertex -3.02385 -0.78938 7.68257
    endloop
  endfacet
endsolid OpenSCAD_Model
